<svg
  width="64"
  height="64"
  viewBox="0 0 512 512"
  fill="none"
  xmlns="http://www.w3.org/2000/svg"
>
  <defs>
    <linearGradient id="bg" x1="64" y1="64" x2="448" y2="448" gradientUnits="userSpaceOnUse">
      <stop offset="0" stop-color="#749E68" />
      <stop offset="1" stop-color="#638A58" />
    </linearGradient>
  </defs>

  <!-- Minimal favicon: keep only the bulb silhouette -->
  <rect x="32" y="32" width="448" height="448" rx="112" fill="url(#bg)" />

  <path
    d="M256 156
       C206 156 168 196 168 246
       C168 284 190 316 218 334
       C232 343 240 358 240 374
       V386
       H272
       V374
       C272 358 280 343 294 334
       C322 316 344 284 344 246
       C344 196 306 156 256 156Z"
    fill="#FFFFFF"
    opacity="0.97"
  />

  <g fill="#FFFFFF" opacity="0.95">
    <rect x="214" y="386" width="84" height="34" rx="12" />
    <rect x="220" y="420" width="72" height="28" rx="12" />
  </g>
</svg>
